<?xml version="1.0" encoding="UTF-8"?>
<svg id="_レイヤー_2" data-name="レイヤー 2" xmlns="http://www.w3.org/2000/svg" xmlns:xlink="http://www.w3.org/1999/xlink" viewBox="0 0 1456.8669 200.29025">
  <defs>
    <style>
      .cls-1 {
        fill: url(#_名称未設定グラデーション_1723);
      }
    </style>
    <linearGradient id="_名称未設定グラデーション_1723" data-name="名称未設定グラデーション 1723" x1="53.91213" y1="62.93299" x2="1455.05665" y2="134.08486" gradientUnits="userSpaceOnUse">
      <stop offset="0" stop-color="#9c48f7"/>
      <stop offset=".38857" stop-color="#0081ff"/>
      <stop offset=".70714" stop-color="#c567c8"/>
      <stop offset="1" stop-color="#fc44a7"/>
    </linearGradient>
  </defs>
  <g id="_レイヤー_3" data-name="レイヤー 3">
    <g>
      <g>
        <path d="M176.45022,119.55399c0-15.48696,15.84034-71.03105,15.84034-81.9741,0-9.70521-3.96008-14.4544-11.21949-14.4544-19.33574,0-39.54658,36.85922-47.71004,67.18897-.02273.08445-.04115.16876-.05597.25507l-8.20626,47.79571c-.203,1.18231-1.19837,2.04383-2.36137,2.04383h-9.64839c-1.4927,0-2.62273-1.39281-2.36104-2.91009l15.55967-90.21389c2.85981-16.51953-2.20054-24.77853-11.22099-24.77853-20.87728,0-39.99896,36.25913-47.05927,66.18122-.016.06783-.02933.13529-.04048.20415l-8.00806,49.44945c-.19325,1.19332-1.19349,2.06769-2.36535,2.06769h-9.65933c-1.48227,0-2.60961-1.37446-2.36541-2.88392L63.38755,27.38274c.46538-2.87662-1.54145-5.56598-4.35572-5.81761-1.97581-.17666-3.88179-.29795-5.7882-.29795-22.88148,0-38.72182,16.10589-38.72182,41.91698,0,5.96705,1.1997,10.94909,3.60003,15.06163.77293,1.32428.12076,3.0499-1.29339,3.55862l-8.47766,3.04974c-1.03087.37084-2.19911-.00741-2.78254-.96002-3.71183-6.06062-5.56823-13.12423-5.56823-20.70997C0,29.93982,22.88148,10.32413,55.44267,10.32413c4.27198,0,9.43434.30396,14.65234.81986,5.42913.53677,9.25878,5.75205,8.35744,11.30557l-1.56651,9.65184c-.41688,2.56857,2.7781,3.95756,4.2874,1.87079,9.78544-13.52937,22.46318-23.44125,37.19415-23.44125,13.01684,0,23.04667,8.11289,23.58239,24.21382.07947,2.38858,3.01984,3.37151,4.34563,1.41233,9.77711-14.44797,22.36666-24.8004,37.63536-24.8004,14.30055,0,22.66173,7.64007,22.66173,25.39745,0,13.21501-15.62208,67.10761-15.62208,81.35518,0,8.05217,4.40109,12.38772,12.32126,12.38772,12.07604,0,24.96714-9.95488,34.354-26.73236.61895-1.10627,1.9324-1.57127,3.06299-1.05201l5.92899,2.72307c1.31795.60531,1.80891,2.25692,1.07958,3.54181-10.2093,17.98628-26.23746,33.49666-47.50513,33.49666-12.98202,0-23.762-7.02115-23.762-22.92021Z"/>
        <path d="M237.38528,107.99048c0-28.70043,19.36091-52.65321,46.42372-52.65321,8.81097,0,17.46896,2.44334,24.31289,7.69041,1.85639,1.42325,4.50623.44149,5.01367-1.88759l.25598-1.17491c.32643-1.49827,1.61516-2.56277,3.10259-2.56277h6.90142c2.03816,0,3.5424,1.95558,3.09928,4.00954-3.09294,14.3365-5.52635,27.72915-8.14385,44.92704-2.64006,17.34528,3.73883,24.5717,14.74006,24.5717,11.29393,0,22.58921-10.07648,31.80393-26.50465.82289-1.46706,2.56519-2.08255,4.06546-1.3935l4.48774,2.06114c1.74408.80102,2.40165,2.98912,1.43792,4.69031-10.37744,18.31849-24.23701,32.71022-43.9956,32.71022-13.17946,0-21.78994-5.57523-25.07113-15.89183-.76367-2.4011-3.87422-2.97688-5.42764-1.02377-8.18698,10.29337-18.89284,16.70878-31.98354,16.70878-18.70164,0-31.0229-13.83393-31.0229-34.27691ZM309.1323,79.63987c.14218-.94776-.14019-1.90972-.73046-2.65025-5.16944-6.4853-15.00009-10.49011-23.2728-10.29566-21.12194.41364-33.4432,18.37784-33.4432,41.50334,0,12.80291,7.04115,22.71339,19.3624,22.71339,17.55126,0,33.60756-21.43038,38.08407-51.27082Z"/>
        <path d="M364.9855,109.22987c0-29.93982,19.36091-53.8926,47.08299-53.8926,8.77803,0,17.40421,2.4251,24.23605,7.75046,1.87248,1.45958,4.56752.46078,5.05129-1.90953l.32311-1.58311c.31003-1.51905,1.60817-2.60633,3.11178-2.60633h7.32002c1.96035,0,3.45388,1.81344,3.13877,3.81109l-10.49079,66.50653c-.31481,1.99571,1.17386,3.81111,3.13231,3.81114.01311,0,.02627,0,.03947,0,19.64689,0,31.35251-10.99465,40.39627-26.7882.81747-1.42759,2.52263-2.02012,3.99026-1.34607l4.65463,2.13779c1.70713.78405,2.39077,2.9102,1.49306,4.602-9.82061,18.50769-25.55633,32.75118-50.75397,32.75118l-2.45658-.09622c-1.61043-.06308-3.01197,1.12758-3.26213,2.7713l-1.10118,7.23541c-5.06036,32.62542-20.90219,47.90556-47.08299,47.90556-14.59665,0-26.89349-6.63948-32.77011-16.19704-1.06081-1.72528-.34707-4.02558,1.48332-4.8033l6.19425-2.6319c1.27345-.54108,2.71692-.16328,3.62136.90884,4.36846,5.17832,12.19639,10.12732,23.01096,10.12732,17.16036,0,27.50233-12.38926,31.02141-36.13522l2.81135-17.46148c.49085-3.04868-3.03912-5.09175-5.2414-2.99858-7.58368,7.20798-16.89388,11.37532-27.93059,11.37532-18.70164,0-31.0229-14.04075-31.0229-33.24434ZM437.59523,79.6815c.14225-.90376-.07099-1.85454-.64045-2.55645-5.32617-6.56492-15.23469-10.62688-23.56626-10.43109-21.78121.41364-34.10247,18.37784-34.10247,41.29651,0,13.21501,6.82139,22.92021,19.58216,22.92021,17.97575,0,34.03348-21.41045,38.72702-51.22919Z"/>
        <path d="M488.40736,106.33899l7.68765-46.20909c.26216-1.57579,1.58561-2.7275,3.13422-2.7275h8.07632c1.96834,0,3.46398,1.82746,3.13553,3.83119l-7.29216,44.48647c-2.85981,17.34373,2.85981,24.77698,14.0808,24.77698,12.32312,0,23.85265-10.4205,32.51899-26.14015.7997-1.45056,2.55522-2.01235,4.03228-1.33397l4.46934,2.05269c1.73722.79788,2.40943,2.98113,1.45012,4.67602-10.46757,18.49377-25.16617,32.72258-45.77155,32.72258-17.82113,0-29.70138-10.73777-25.52154-36.13522ZM496.98829,29.733c-.21976-6.6075,4.8406-10.94305,11.44074-10.94305,5.49987,0,9.02044,3.0977,9.2402,7.84689.21976,6.81278-4.39959,11.14987-11.22099,11.14987-5.28011,0-9.2402-3.51135-9.45995-8.05372Z"/>
        <path d="M550.22892,104.06703c0-26.01637,20.02018-48.72976,46.64199-48.72976,13.42228,0,34.27126,7.93834,29.18427,34.31485-.29606,1.53508-1.6114,2.64612-3.12742,2.64612h-5.09135c-1.91171,0-3.39692-1.73693-3.14767-3.69382,1.90925-14.99012-7.02496-21.91045-18.03759-21.91045-18.26064,0-31.46241,17.5521-31.46241,36.96097,0,17.34528,11.22099,27.46258,28.6026,27.46258,13.29328,0,25.41006-5.88908,35.60944-18.53606,1.04547-1.29635,2.89221-1.52676,4.23218-.56153l4.25887,3.06781c1.5281,1.10074,1.80962,3.31801.62781,4.80527-12.65716,15.92843-28.57696,22.58121-46.26958,22.58121-25.96105,0-42.02114-14.24758-42.02114-38.40718Z"/>
        <path d="M731.07276,93.7429l11.88025-48.72976c3.74033-15.28014-2.4203-23.53914-12.98052-23.53914-16.5011,0-29.04211,16.31271-29.04211,42.12226,0,5.18546,1.08367,10.11711,3.25174,14.29513.91938,1.77172.12321,3.96601-1.70823,4.64762l-6.64667,2.4737c-1.4381.53522-3.04542-.05962-3.82892-1.41484-3.43213-5.9366-5.14872-12.88843-5.14872-20.00161,0-31.79813,18.04088-53.27213,44.44294-53.27213,14.0808,0,32.34143,8.25899,26.1808,34.68901l-12.98052,54.09942c-4.39959,18.58312.21976,31.79813,14.96131,31.79813,14.17627,0,28.13659-14.81246,36.95139-34.98302.15289-.34986.24576-.7342.27509-1.11683,2.88339-37.62461,9.46872-58.47034,19.75598-58.47034,12.49708,0,7.07946,25.63056-6.23961,60.3405-.09262.24136-.16155.50199-.19881.75873-3.14098,21.64086,5.19221,33.67778,17.43965,33.67778,29.25619,0,51.36194-63.96033,47.59959-111.5853-.14134-1.78916,1.16778-3.3498,2.90019-3.5021l7.72621-.67921c1.77272-.15584,3.31333,1.21569,3.44695,3.04737,3.35573,45.99982-16.81756,124.48804-62.77322,124.48804-12.80898,0-22.71422-6.6589-26.81788-19.32969-.79466-2.45367-3.98501-2.96418-5.49882-.90242-9.23915,12.58343-21.7317,20.23211-35.88674,20.23211-24.86227,0-34.10247-20.44143-27.06132-49.14341Z"/>
        <path d="M901.35338,106.33899l7.68765-46.20909c.26216-1.57579,1.58561-2.7275,3.13422-2.7275h8.07632c1.96834,0,3.46398,1.82746,3.13553,3.83119l-7.29216,44.48647c-2.85981,17.34373,2.85981,24.77698,14.0808,24.77698,12.32312,0,23.85265-10.4205,32.51899-26.14015.7997-1.45056,2.55522-2.01235,4.03228-1.33397l4.46934,2.05269c1.73722.79788,2.40943,2.98113,1.45012,4.67602-10.46757,18.49377-25.16617,32.72258-45.77155,32.72258-17.82113,0-29.70138-10.73777-25.52154-36.13522ZM909.93431,29.733c-.21976-6.6075,4.8406-10.94305,11.44074-10.94305,5.49987,0,9.02044,3.0977,9.2402,7.84689.21976,6.81278-4.39959,11.14987-11.22099,11.14987-5.28011,0-9.2402-3.51135-9.45995-8.05372Z"/>
        <path d="M973.14952,57.4024h7.40439c1.96088,0,3.45454,1.81436,3.13856,3.81241l-1.5981,10.10513c-.51185,3.23652,3.34785,5.13342,5.4998,2.72137,8.89612-9.97138,21.23251-18.70404,35.20328-18.70404,15.62058,0,25.30178,9.49838,25.30178,24.36488,0,13.00973-7.03965,28.28833-7.03965,38.81928,0,8.05372,5.28011,11.97562,12.98052,11.97562,10.24738,0,21.29042-9.70156,30.48383-26.09115.82289-1.46701,2.56521-2.08243,4.06546-1.39339l4.49699,2.06539c1.7367.79764,2.41344,2.97948,1.4531,4.67306-10.01134,17.6552-25.52337,32.72326-43.58044,32.72326-12.98052,0-23.7605-6.81433-23.7605-21.68082,0-11.77034,6.38038-26.01791,6.38038-37.78671,0-9.49838-4.8406-16.31271-14.96131-16.31271-20.82537,0-37.72064,30.13509-43.28276,52.00416-.04071.16008-.06931.31949-.08806.48385l-.63111,5.53485-1.80609,12.87939c-.22644,1.61476-1.56699,2.81286-3.1473,2.81286h-8.26403c-1.95516,0-3.44729-1.80435-3.1408-3.79801l11.75127-76.44003c.24515-1.59467,1.57692-2.76863,3.1408-2.76863Z"/>
        <path d="M1154.7383,125.549c-.79816-2.47154-3.95455-2.93682-5.51679-.89084-8.41118,11.01565-19.46859,17.81605-33.58409,17.81605-18.70164,0-31.0229-14.04075-31.0229-33.24434,0-29.93982,19.58216-53.8926,47.08299-53.8926,8.51359,0,17.02719,2.37918,23.82205,7.36927,1.93767,1.42301,4.63816.3217,5.02412-2.10077l9.21769-57.85537c.25274-1.58632,1.58084-2.7504,3.13795-2.7504h7.83529c1.96901,0,3.46482,1.82864,3.13526,3.83287l-15.87084,96.51754c-3.73883,23.12704,2.86131,30.14664,13.86104,30.14664,11.11077,0,22.02201-9.18584,31.40162-26.12876.80487-1.45388,2.55672-2.0316,4.03867-1.35096l4.45752,2.04726c1.74794.8028,2.40416,2.99868,1.43139,4.69944-10.67077,18.65637-23.7616,32.71019-43.74949,32.71019-13.48504,0-21.38609-6.65899-24.70147-16.9252ZM1157.23,79.65412c.13852-.88763-.0649-1.82114-.61346-2.5194-5.29884-6.74483-15.04275-10.63694-23.59899-10.44076-21.78121.41364-34.10247,18.58312-34.10247,41.29651,0,13.21501,6.82139,22.92021,19.58216,22.92021,17.98309,0,34.04659-21.22735,38.73276-51.25657Z"/>
        <path d="M1213.3165,105.30642c0-28.08151,19.80191-49.96915,49.28354-49.96915,23.54075,0,37.8413,15.89907,37.8413,36.13522,0,8.35352-1.56237,16.26841-4.68891,23.24739-.91631,2.04538.30056,4.39983,2.4648,4.69257,1.5573.21064,3.33343.34837,5.30517.34837,8.28706,0,19.10987-3.11208,26.77426-15.54381.84273-1.36691,2.52915-1.89598,3.96308-1.2374l4.55505,2.09205c1.75337.80529,2.44185,3.03571,1.43055,4.71957-8.48971,14.13574-23.00263,21.11946-39.804,21.11946-4.75563,0-9.01834-.77202-12.6451-1.78222-1.05177-.29296-2.15365.0249-2.96147.77948-8.44166,7.88525-19.62635,12.35943-32.79495,12.35943-23.762,0-38.50356-15.89907-38.72331-36.96097ZM1285.92103,92.29823c-.21976-14.4544-8.58093-25.39745-24.42127-25.39745-20.24143,0-33.44171,17.13845-33.44171,37.78671,0,15.07332,9.02044,26.01637,24.64102,26.01637,19.36091,0,33.22195-16.51799,33.22195-38.40563Z"/>
        <path d="M1387.66606,130.63614c-1.21209-1.83783-3.73352-2.02097-5.11183-.31257-5.91202,7.3279-14.3275,12.15063-25.7927,12.15063-14.96131,0-26.62181-10.32413-26.62181-29.93982,0-13.01464,3.10358-28.74741,10.31251-52.84539.40642-1.35859,1.6209-2.29988,2.99799-2.31949l7.8045-.11116c2.16046-.03077,3.72069,2.13332,3.07662,4.26269-6.59404,21.80045-9.89106,38.31094-9.89106,49.36032,0,13.42183,6.82139,19.20359,16.28134,19.20359,10.96405,0,18.86782-11.28006,23.27626-26.88997.02963-.1049.05508-.21265.07575-.31981l8.26735-42.86813c.29296-1.51906,1.5743-2.62013,3.07435-2.64183l7.80896-.11294c2.01992-.02921,3.55397,1.86812,3.16522,3.91482l-8.26611,43.52041c-2.85981,14.4544,2.64006,25.39745,15.84183,25.39745,13.85955,0,29.04062-16.72481,29.04062-48.11084,0-9.20517-.77992-15.72745-1.84007-20.59655-.44509-2.04421,1.07634-3.97515,3.10571-3.97515h7.22523c1.49976,0,2.78698,1.07768,3.11307,2.58907,1.40445,6.50954,2.25711,14.16595,2.25711,21.98264,0,34.07009-15.62058,60.5001-44.88245,60.5001-11.03345,0-19.3645-4.32675-24.31839-11.83807Z"/>
      </g>
      <g>
        <path class="cls-1" d="M176.45022,119.55399c0-15.48696,15.84034-71.03105,15.84034-81.9741,0-9.70521-3.96008-14.4544-11.21949-14.4544-19.33574,0-39.54658,36.85922-47.71004,67.18897-.02273.08445-.04115.16876-.05597.25507l-8.20626,47.79571c-.203,1.18231-1.19837,2.04383-2.36137,2.04383h-9.64839c-1.4927,0-2.62273-1.39281-2.36104-2.91009l15.55967-90.21389c2.85981-16.51953-2.20054-24.77853-11.22099-24.77853-20.87728,0-39.99896,36.25913-47.05927,66.18122-.016.06783-.02933.13529-.04048.20415l-8.00806,49.44945c-.19325,1.19332-1.19349,2.06769-2.36535,2.06769h-9.65933c-1.48227,0-2.60961-1.37446-2.36541-2.88392L63.38755,27.38274c.46538-2.87662-1.54145-5.56598-4.35572-5.81761-1.97581-.17666-3.88179-.29795-5.7882-.29795-22.88148,0-38.72182,16.10589-38.72182,41.91698,0,5.96705,1.1997,10.94909,3.60003,15.06163.77293,1.32428.12076,3.0499-1.29339,3.55862l-8.47766,3.04974c-1.03087.37084-2.19911-.00741-2.78254-.96002-3.71183-6.06062-5.56823-13.12423-5.56823-20.70997C0,29.93982,22.88148,10.32413,55.44267,10.32413c4.27198,0,9.43434.30396,14.65234.81986,5.42913.53677,9.25878,5.75205,8.35744,11.30557l-1.56651,9.65184c-.41688,2.56857,2.7781,3.95756,4.2874,1.87079,9.78544-13.52937,22.46318-23.44125,37.19415-23.44125,13.01684,0,23.04667,8.11289,23.58239,24.21382.07947,2.38858,3.01984,3.37151,4.34563,1.41233,9.77711-14.44797,22.36666-24.8004,37.63536-24.8004,14.30055,0,22.66173,7.64007,22.66173,25.39745,0,13.21501-15.62208,67.10761-15.62208,81.35518,0,8.05217,4.40109,12.38772,12.32126,12.38772,12.07604,0,24.96714-9.95488,34.354-26.73236.61895-1.10627,1.9324-1.57127,3.06299-1.05201l5.92899,2.72307c1.31795.60531,1.80891,2.25692,1.07958,3.54181-10.2093,17.98628-26.23746,33.49666-47.50513,33.49666-12.98202,0-23.762-7.02115-23.762-22.92021Z"/>
        <path class="cls-1" d="M237.38528,107.99048c0-28.70043,19.36091-52.65321,46.42372-52.65321,8.81097,0,17.46896,2.44334,24.31289,7.69041,1.85639,1.42325,4.50623.44149,5.01367-1.88759l.25598-1.17491c.32643-1.49827,1.61516-2.56277,3.10259-2.56277h6.90142c2.03816,0,3.5424,1.95558,3.09928,4.00954-3.09294,14.3365-5.52635,27.72915-8.14385,44.92704-2.64006,17.34528,3.73883,24.5717,14.74006,24.5717,11.29393,0,22.58921-10.07648,31.80393-26.50465.82289-1.46706,2.56519-2.08255,4.06546-1.3935l4.48774,2.06114c1.74408.80102,2.40165,2.98912,1.43792,4.69031-10.37744,18.31849-24.23701,32.71022-43.9956,32.71022-13.17946,0-21.78994-5.57523-25.07113-15.89183-.76367-2.4011-3.87422-2.97688-5.42764-1.02377-8.18698,10.29337-18.89284,16.70878-31.98354,16.70878-18.70164,0-31.0229-13.83393-31.0229-34.27691ZM309.1323,79.63987c.14218-.94776-.14019-1.90972-.73046-2.65025-5.16944-6.4853-15.00009-10.49011-23.2728-10.29566-21.12194.41364-33.4432,18.37784-33.4432,41.50334,0,12.80291,7.04115,22.71339,19.3624,22.71339,17.55126,0,33.60756-21.43038,38.08407-51.27082Z"/>
        <path class="cls-1" d="M364.9855,109.22987c0-29.93982,19.36091-53.8926,47.08299-53.8926,8.77803,0,17.40421,2.4251,24.23605,7.75046,1.87248,1.45958,4.56752.46078,5.05129-1.90953l.32311-1.58311c.31003-1.51905,1.60817-2.60633,3.11178-2.60633h7.32002c1.96035,0,3.45388,1.81344,3.13877,3.81109l-10.49079,66.50653c-.31481,1.99571,1.17386,3.81111,3.13231,3.81114.01311,0,.02627,0,.03947,0,19.64689,0,31.35251-10.99465,40.39627-26.7882.81747-1.42759,2.52263-2.02012,3.99026-1.34607l4.65463,2.13779c1.70713.78405,2.39077,2.9102,1.49306,4.602-9.82061,18.50769-25.55633,32.75118-50.75397,32.75118l-2.45658-.09622c-1.61043-.06308-3.01197,1.12758-3.26213,2.7713l-1.10118,7.23541c-5.06036,32.62542-20.90219,47.90556-47.08299,47.90556-14.59665,0-26.89349-6.63948-32.77011-16.19704-1.06081-1.72528-.34707-4.02558,1.48332-4.8033l6.19425-2.6319c1.27345-.54108,2.71692-.16328,3.62136.90884,4.36846,5.17832,12.19639,10.12732,23.01096,10.12732,17.16036,0,27.50233-12.38926,31.02141-36.13522l2.81135-17.46148c.49085-3.04868-3.03912-5.09175-5.2414-2.99858-7.58368,7.20798-16.89388,11.37532-27.93059,11.37532-18.70164,0-31.0229-14.04075-31.0229-33.24434ZM437.59523,79.6815c.14225-.90376-.07099-1.85454-.64045-2.55645-5.32617-6.56492-15.23469-10.62688-23.56626-10.43109-21.78121.41364-34.10247,18.37784-34.10247,41.29651,0,13.21501,6.82139,22.92021,19.58216,22.92021,17.97575,0,34.03348-21.41045,38.72702-51.22919Z"/>
        <path class="cls-1" d="M488.40736,106.33899l7.68765-46.20909c.26216-1.57579,1.58561-2.7275,3.13422-2.7275h8.07632c1.96834,0,3.46398,1.82746,3.13553,3.83119l-7.29216,44.48647c-2.85981,17.34373,2.85981,24.77698,14.0808,24.77698,12.32312,0,23.85265-10.4205,32.51899-26.14015.7997-1.45056,2.55522-2.01235,4.03228-1.33397l4.46934,2.05269c1.73722.79788,2.40943,2.98113,1.45012,4.67602-10.46757,18.49377-25.16617,32.72258-45.77155,32.72258-17.82113,0-29.70138-10.73777-25.52154-36.13522ZM496.98829,29.733c-.21976-6.6075,4.8406-10.94305,11.44074-10.94305,5.49987,0,9.02044,3.0977,9.2402,7.84689.21976,6.81278-4.39959,11.14987-11.22099,11.14987-5.28011,0-9.2402-3.51135-9.45995-8.05372Z"/>
        <path class="cls-1" d="M550.22892,104.06703c0-26.01637,20.02018-48.72976,46.64199-48.72976,13.42228,0,34.27126,7.93834,29.18427,34.31485-.29606,1.53508-1.6114,2.64612-3.12742,2.64612h-5.09135c-1.91171,0-3.39692-1.73693-3.14767-3.69382,1.90925-14.99012-7.02496-21.91045-18.03759-21.91045-18.26064,0-31.46241,17.5521-31.46241,36.96097,0,17.34528,11.22099,27.46258,28.6026,27.46258,13.29328,0,25.41006-5.88908,35.60944-18.53606,1.04547-1.29635,2.89221-1.52676,4.23218-.56153l4.25887,3.06781c1.5281,1.10074,1.80962,3.31801.62781,4.80527-12.65716,15.92843-28.57696,22.58121-46.26958,22.58121-25.96105,0-42.02114-14.24758-42.02114-38.40718Z"/>
        <path class="cls-1" d="M731.07276,93.7429l11.88025-48.72976c3.74033-15.28014-2.4203-23.53914-12.98052-23.53914-16.5011,0-29.04211,16.31271-29.04211,42.12226,0,5.18546,1.08367,10.11711,3.25174,14.29513.91938,1.77172.12321,3.96601-1.70823,4.64762l-6.64667,2.4737c-1.4381.53522-3.04542-.05962-3.82892-1.41484-3.43213-5.9366-5.14872-12.88843-5.14872-20.00161,0-31.79813,18.04088-53.27213,44.44294-53.27213,14.0808,0,32.34143,8.25899,26.1808,34.68901l-12.98052,54.09942c-4.39959,18.58312.21976,31.79813,14.96131,31.79813,14.17627,0,28.13659-14.81246,36.95139-34.98302.15289-.34986.24576-.7342.27509-1.11683,2.88339-37.62461,9.46872-58.47034,19.75598-58.47034,12.49708,0,7.07946,25.63056-6.23961,60.3405-.09262.24136-.16155.50199-.19881.75873-3.14098,21.64086,5.19221,33.67778,17.43965,33.67778,29.25619,0,51.36194-63.96033,47.59959-111.5853-.14134-1.78916,1.16778-3.3498,2.90019-3.5021l7.72621-.67921c1.77272-.15584,3.31333,1.21569,3.44695,3.04737,3.35573,45.99982-16.81756,124.48804-62.77322,124.48804-12.80898,0-22.71422-6.6589-26.81788-19.32969-.79466-2.45367-3.98501-2.96418-5.49882-.90242-9.23915,12.58343-21.7317,20.23211-35.88674,20.23211-24.86227,0-34.10247-20.44143-27.06132-49.14341Z"/>
        <path class="cls-1" d="M901.35338,106.33899l7.68765-46.20909c.26216-1.57579,1.58561-2.7275,3.13422-2.7275h8.07632c1.96834,0,3.46398,1.82746,3.13553,3.83119l-7.29216,44.48647c-2.85981,17.34373,2.85981,24.77698,14.0808,24.77698,12.32312,0,23.85265-10.4205,32.51899-26.14015.7997-1.45056,2.55522-2.01235,4.03228-1.33397l4.46934,2.05269c1.73722.79788,2.40943,2.98113,1.45012,4.67602-10.46757,18.49377-25.16617,32.72258-45.77155,32.72258-17.82113,0-29.70138-10.73777-25.52154-36.13522ZM909.93431,29.733c-.21976-6.6075,4.8406-10.94305,11.44074-10.94305,5.49987,0,9.02044,3.0977,9.2402,7.84689.21976,6.81278-4.39959,11.14987-11.22099,11.14987-5.28011,0-9.2402-3.51135-9.45995-8.05372Z"/>
        <path class="cls-1" d="M973.14952,57.4024h7.40439c1.96088,0,3.45454,1.81436,3.13856,3.81241l-1.5981,10.10513c-.51185,3.23652,3.34785,5.13342,5.4998,2.72137,8.89612-9.97138,21.23251-18.70404,35.20328-18.70404,15.62058,0,25.30178,9.49838,25.30178,24.36488,0,13.00973-7.03965,28.28833-7.03965,38.81928,0,8.05372,5.28011,11.97562,12.98052,11.97562,10.24738,0,21.29042-9.70156,30.48383-26.09115.82289-1.46701,2.56521-2.08243,4.06546-1.39339l4.49699,2.06539c1.7367.79764,2.41344,2.97948,1.4531,4.67306-10.01134,17.6552-25.52337,32.72326-43.58044,32.72326-12.98052,0-23.7605-6.81433-23.7605-21.68082,0-11.77034,6.38038-26.01791,6.38038-37.78671,0-9.49838-4.8406-16.31271-14.96131-16.31271-20.82537,0-37.72064,30.13509-43.28276,52.00416-.04071.16008-.06931.31949-.08806.48385l-.63111,5.53485-1.80609,12.87939c-.22644,1.61476-1.56699,2.81286-3.1473,2.81286h-8.26403c-1.95516,0-3.44729-1.80435-3.1408-3.79801l11.75127-76.44003c.24515-1.59467,1.57692-2.76863,3.1408-2.76863Z"/>
        <path class="cls-1" d="M1154.7383,125.549c-.79816-2.47154-3.95455-2.93682-5.51679-.89084-8.41118,11.01565-19.46859,17.81605-33.58409,17.81605-18.70164,0-31.0229-14.04075-31.0229-33.24434,0-29.93982,19.58216-53.8926,47.08299-53.8926,8.51359,0,17.02719,2.37918,23.82205,7.36927,1.93767,1.42301,4.63816.3217,5.02412-2.10077l9.21769-57.85537c.25274-1.58632,1.58084-2.7504,3.13795-2.7504h7.83529c1.96901,0,3.46482,1.82864,3.13526,3.83287l-15.87084,96.51754c-3.73883,23.12704,2.86131,30.14664,13.86104,30.14664,11.11077,0,22.02201-9.18584,31.40162-26.12876.80487-1.45388,2.55672-2.0316,4.03867-1.35096l4.45752,2.04726c1.74794.8028,2.40416,2.99868,1.43139,4.69944-10.67077,18.65637-23.7616,32.71019-43.74949,32.71019-13.48504,0-21.38609-6.65899-24.70147-16.9252ZM1157.23,79.65412c.13852-.88763-.0649-1.82114-.61346-2.5194-5.29884-6.74483-15.04275-10.63694-23.59899-10.44076-21.78121.41364-34.10247,18.58312-34.10247,41.29651,0,13.21501,6.82139,22.92021,19.58216,22.92021,17.98309,0,34.04659-21.22735,38.73276-51.25657Z"/>
        <path class="cls-1" d="M1213.3165,105.30642c0-28.08151,19.80191-49.96915,49.28354-49.96915,23.54075,0,37.8413,15.89907,37.8413,36.13522,0,8.35352-1.56237,16.26841-4.68891,23.24739-.91631,2.04538.30056,4.39983,2.4648,4.69257,1.5573.21064,3.33343.34837,5.30517.34837,8.28706,0,19.10987-3.11208,26.77426-15.54381.84273-1.36691,2.52915-1.89598,3.96308-1.2374l4.55505,2.09205c1.75337.80529,2.44185,3.03571,1.43055,4.71957-8.48971,14.13574-23.00263,21.11946-39.804,21.11946-4.75563,0-9.01834-.77202-12.6451-1.78222-1.05177-.29296-2.15365.0249-2.96147.77948-8.44166,7.88525-19.62635,12.35943-32.79495,12.35943-23.762,0-38.50356-15.89907-38.72331-36.96097ZM1285.92103,92.29823c-.21976-14.4544-8.58093-25.39745-24.42127-25.39745-20.24143,0-33.44171,17.13845-33.44171,37.78671,0,15.07332,9.02044,26.01637,24.64102,26.01637,19.36091,0,33.22195-16.51799,33.22195-38.40563Z"/>
        <path class="cls-1" d="M1387.66606,130.63614c-1.21209-1.83783-3.73352-2.02097-5.11183-.31257-5.91202,7.3279-14.3275,12.15063-25.7927,12.15063-14.96131,0-26.62181-10.32413-26.62181-29.93982,0-13.01464,3.10358-28.74741,10.31251-52.84539.40642-1.35859,1.6209-2.29988,2.99799-2.31949l7.8045-.11116c2.16046-.03077,3.72069,2.13332,3.07662,4.26269-6.59404,21.80045-9.89106,38.31094-9.89106,49.36032,0,13.42183,6.82139,19.20359,16.28134,19.20359,10.96405,0,18.86782-11.28006,23.27626-26.88997.02963-.1049.05508-.21265.07575-.31981l8.26735-42.86813c.29296-1.51906,1.5743-2.62013,3.07435-2.64183l7.80896-.11294c2.01992-.02921,3.55397,1.86812,3.16522,3.91482l-8.26611,43.52041c-2.85981,14.4544,2.64006,25.39745,15.84183,25.39745,13.85955,0,29.04062-16.72481,29.04062-48.11084,0-9.20517-.77992-15.72745-1.84007-20.59655-.44509-2.04421,1.07634-3.97515,3.10571-3.97515h7.22523c1.49976,0,2.78698,1.07768,3.11307,2.58907,1.40445,6.50954,2.25711,14.16595,2.25711,21.98264,0,34.07009-15.62058,60.5001-44.88245,60.5001-11.03345,0-19.3645-4.32675-24.31839-11.83807Z"/>
      </g>
    </g>
  </g>
</svg>